<svg width="33" height="48" viewBox="0 0 33 48" fill="none" xmlns="http://www.w3.org/2000/svg">
<rect width="33" height="48" fill="#F5F5F5"/>
<rect width="1280" height="1628" transform="translate(-44 -23)" fill="white"/>
<path d="M1.74291 13.0369H1.74293H31.46C31.4601 13.0369 31.4601 13.0369 31.4601 13.0369C31.5773 13.0369 31.6935 13.0138 31.8018 12.9689C31.9101 12.9241 32.0086 12.8583 32.0915 12.7754C32.1744 12.6925 32.2402 12.594 32.2851 12.4857L32.1465 12.4283L32.2851 12.4856C32.33 12.3773 32.353 12.2612 32.353 12.1439V12.1438C32.3497 9.14949 31.1587 6.27881 29.0415 4.16154C26.9242 2.04427 24.0535 0.853328 21.0592 0.85H21.0591L12.1439 0.85L12.1438 0.85C9.14951 0.853388 6.27886 2.04435 4.16161 4.16161C2.04435 6.27886 0.853388 9.14951 0.85 12.1438L0.85 12.1439C0.850024 12.3808 0.944106 12.6079 1.11155 12.7753C1.279 12.9428 1.50611 13.0368 1.74291 13.0369ZM12.1441 2.63586H21.0589C23.4532 2.63879 25.7585 3.54371 27.5155 5.1703C29.2327 6.7601 30.3029 8.92522 30.5252 11.251H2.67777C2.90007 8.92522 3.97027 6.7601 5.6875 5.1703C7.44448 3.54371 9.7498 2.63879 12.1441 2.63586Z" fill="#E8590C" stroke="#E8590C" stroke-width="0.3"/>
<path d="M1.74293 35.0247H1.74291C1.5061 35.0248 1.279 35.1189 1.11156 35.2863C0.944109 35.4537 0.850026 35.6808 0.85 35.9177V35.9177L0.85 38.8894L0.85 38.8896C0.852499 41.0959 1.73009 43.2112 3.29023 44.7714C4.85038 46.3315 6.96567 47.2091 9.17205 47.2116H9.17222L24.0308 47.2116L24.031 47.2116C26.2373 47.2091 28.3526 46.3315 29.9128 44.7714C31.4729 43.2112 32.3505 41.0959 32.353 38.8896V38.8894V35.9177C32.353 35.9177 32.353 35.9177 32.353 35.9177C32.353 35.8004 32.3299 35.6843 32.2851 35.576C32.2402 35.4676 32.1744 35.3692 32.0915 35.2862C32.0086 35.2033 31.9101 35.1375 31.8018 35.0927C31.6935 35.0478 31.5773 35.0247 31.4601 35.0247C31.4601 35.0247 31.4601 35.0247 31.46 35.0247H1.74293ZM30.5672 38.8892C30.5652 40.6222 29.8759 42.2837 28.6505 43.5091C27.4251 44.7345 25.7636 45.4238 24.0306 45.4257H9.17239C7.43941 45.4237 5.77799 44.7344 4.55259 43.509C3.32721 42.2836 2.6379 40.6223 2.63586 38.8893C2.63586 38.8893 2.63586 38.8892 2.63586 38.8892L2.63586 36.8106H30.5672V38.8892Z" fill="#E8590C" stroke="#E8590C" stroke-width="0.3"/>
<path d="M29.1137 21.0543L29.1137 21.0543L29.1109 21.0564C28.7172 21.355 28.2367 21.5166 27.7426 21.5167C27.2485 21.5168 26.7679 21.3552 26.3741 21.0567L26.3742 21.0567L26.3705 21.0541C25.6856 20.5661 24.8656 20.3039 24.0246 20.3039C23.1837 20.3039 22.3636 20.5661 21.6787 21.0541L21.6787 21.054L21.675 21.0568C21.2824 21.3552 20.8028 21.5168 20.3096 21.5168C19.8165 21.5168 19.3369 21.3552 18.9443 21.0568L18.9443 21.0568L18.9406 21.0541C18.2563 20.5662 17.4368 20.3039 16.5963 20.3039C15.7558 20.3039 14.9362 20.5662 14.2519 21.0541L14.2519 21.0541L14.2482 21.0568C13.8555 21.3552 13.3759 21.5168 12.8827 21.5168C12.3895 21.5168 11.9099 21.3552 11.5172 21.0568L11.5172 21.0568L11.5135 21.0541C10.8293 20.5661 10.0098 20.3038 9.16932 20.3038C8.32887 20.3038 7.50937 20.5661 6.82513 21.0541L6.82509 21.0541L6.82146 21.0568C6.42884 21.3552 5.94927 21.5168 5.45612 21.5168C4.96297 21.5168 4.4834 21.3552 4.09079 21.0568L4.09081 21.0568L4.08801 21.0548C3.40638 20.5611 2.58317 20.3015 1.74167 20.3149C1.50531 20.3152 1.27869 20.4093 1.11153 20.5764C0.944076 20.7439 0.85 20.971 0.85 21.2078C0.85 21.4446 0.944076 21.6718 1.11153 21.8392C1.27899 22.0067 1.50611 22.1008 1.74293 22.1008V22.1008L1.74666 22.1007C2.23797 22.0885 2.7185 22.2459 3.10733 22.5465L3.10726 22.5466L3.11197 22.5499C3.79619 23.0379 4.61568 23.3003 5.45612 23.3003C6.29657 23.3003 7.11605 23.0379 7.80028 22.5499L7.80032 22.55L7.80394 22.5472C8.19657 22.2488 8.67616 22.0872 9.16932 22.0872C9.66248 22.0872 10.1421 22.2488 10.5347 22.5472L10.5347 22.5473L10.5384 22.5499C11.2227 23.0379 12.0422 23.3002 12.8827 23.3002C13.7232 23.3002 14.5427 23.0379 15.227 22.5499L15.2271 22.55L15.2307 22.5472C15.6234 22.2488 16.103 22.0872 16.5962 22.0872C17.0894 22.0872 17.5691 22.2488 17.9618 22.5472L17.9617 22.5473L17.9654 22.5499C18.6497 23.0379 19.4692 23.3002 20.3096 23.3002C21.1501 23.3002 21.9696 23.0379 22.6538 22.5499L22.6538 22.55L22.6574 22.5473C23.0507 22.2488 23.5309 22.0872 24.0246 22.0872C24.5184 22.0872 24.9986 22.2488 25.3919 22.5473L25.3918 22.5473L25.3955 22.55C26.0807 23.0379 26.901 23.3001 27.7422 23.3001C28.5833 23.3001 29.4036 23.0379 30.0888 22.55L30.0889 22.5501L30.0935 22.5465C30.483 22.2457 30.9643 22.0883 31.4563 22.1007V22.1008H31.4601C31.6969 22.1008 31.924 22.0067 32.0915 21.8392C32.2589 21.6718 32.353 21.4446 32.353 21.2078C32.353 20.971 32.2589 20.7439 32.0915 20.5764C31.9243 20.4093 31.6977 20.3152 31.4613 20.3149C30.6195 20.3016 29.7959 20.561 29.1137 21.0543Z" fill="black" stroke="black" stroke-width="0.3"/>
<path d="M27.7458 32.053H27.7454H5.45757C4.70921 32.053 3.99149 31.7557 3.46232 31.2266C2.93314 30.6974 2.63586 29.9797 2.63586 29.2313C2.63586 28.483 2.93314 27.7652 3.46232 27.2361C3.99149 26.7069 4.70921 26.4096 5.45757 26.4096H17.0141L21.9641 30.6522L21.9642 30.6523C22.1259 30.7908 22.3319 30.867 22.5449 30.867C22.7579 30.867 22.9639 30.7908 23.1257 30.6523L23.1258 30.6522L28.0405 26.4396C28.7421 26.5116 29.392 26.8447 29.8604 27.3739C30.3424 27.9187 30.5948 28.6289 30.5647 29.3556C30.5345 30.0824 30.2241 30.7692 29.6986 31.2721C29.173 31.775 28.4732 32.0549 27.7458 32.053ZM27.7454 24.6237H5.45757C4.23557 24.6237 3.06361 25.1092 2.19953 25.9733C1.33544 26.8374 0.85 28.0093 0.85 29.2313C0.85 30.4533 1.33544 31.6253 2.19953 32.4894C3.06361 33.3534 4.23557 33.8389 5.45757 33.8389H27.7454C28.9674 33.8389 30.1394 33.3534 31.0035 32.4894C31.8676 31.6253 32.353 30.4533 32.353 29.2313C32.353 28.0093 31.8676 26.8374 31.0035 25.9733C30.1394 25.1092 28.9674 24.6237 27.7454 24.6237ZM22.5449 28.7983L19.7581 26.4096H25.3317L22.5449 28.7983Z" fill="black" stroke="black" stroke-width="0.3"/>
<path d="M29.9742 14.2227H3.22879C2.59789 14.2227 1.99284 14.4733 1.54673 14.9194C1.10062 15.3655 0.85 15.9706 0.85 16.6015C0.85 17.2324 1.10062 17.8374 1.54673 18.2835C1.99284 18.7296 2.59789 18.9803 3.22879 18.9803H29.9742C30.6051 18.9803 31.2102 18.7296 31.6563 18.2835C32.1024 17.8374 32.353 17.2324 32.353 16.6015C32.353 15.9706 32.1024 15.3655 31.6563 14.9194C31.2102 14.4733 30.6051 14.2227 29.9742 14.2227ZM29.9742 17.1944H3.22879C3.07153 17.1944 2.92072 17.1319 2.80952 17.0207C2.69833 16.9095 2.63586 16.7587 2.63586 16.6015C2.63586 16.4442 2.69833 16.2934 2.80952 16.1822C2.92072 16.071 3.07153 16.0085 3.22879 16.0085H29.9742C30.1315 16.0085 30.2823 16.071 30.3935 16.1822C30.5047 16.2934 30.5672 16.4442 30.5672 16.6015C30.5672 16.7587 30.5047 16.9095 30.3935 17.0207C30.2823 17.1319 30.1315 17.1944 29.9742 17.1944Z" fill="black" stroke="black" stroke-width="0.3"/>
</svg>
